<svg xmlns="http://www.w3.org/2000/svg" viewBox="0 0 128 128" role="img" aria-labelledby="title desc"><title id="title">Logo hoa mai Dề Dê Tickets</title><desc id="desc">Hoa mai vàng tự vẽ với nhụy đỏ và nền xanh đậm.</desc><defs><radialGradient id="petal" cx="50%" cy="35%" r="70%"><stop offset="0" stop-color="#fff7ad"/><stop offset="0.55" stop-color="#facc15"/><stop offset="1" stop-color="#f59e0b"/></radialGradient><linearGradient id="disc" x1="20" y1="18" x2="108" y2="112"><stop stop-color="#0f766e"/><stop offset="1" stop-color="#1e3a8a"/></linearGradient></defs><circle cx="64" cy="64" r="58" fill="url(#disc)"/><circle cx="64" cy="64" r="51" fill="none" stroke="#fef3c7" stroke-opacity=".42" stroke-width="3"/><g transform="translate(64 64)"><ellipse rx="18" ry="34" fill="url(#petal)" transform="rotate(0) translate(0 -26)"/><ellipse rx="18" ry="34" fill="url(#petal)" transform="rotate(72) translate(0 -26)"/><ellipse rx="18" ry="34" fill="url(#petal)" transform="rotate(144) translate(0 -26)"/><ellipse rx="18" ry="34" fill="url(#petal)" transform="rotate(216) translate(0 -26)"/><ellipse rx="18" ry="34" fill="url(#petal)" transform="rotate(288) translate(0 -26)"/></g><circle cx="64" cy="64" r="13" fill="#b91c1c"/><circle cx="64" cy="64" r="7" fill="#fde68a"/><g fill="#fff7ad"><circle cx="64" cy="47" r="3"/><circle cx="80" cy="59" r="3"/><circle cx="74" cy="78" r="3"/><circle cx="54" cy="78" r="3"/><circle cx="48" cy="59" r="3"/></g></svg>
